<?xml version="1.0" encoding="iso-8859-1"?>
<!-- Uploaded to: SVG Repo, www.svgrepo.com, Generator: SVG Repo Mixer Tools -->
<svg fill="#000000" height="800px" width="800px" version="1.1" id="Layer_1" xmlns="http://www.w3.org/2000/svg" xmlns:xlink="http://www.w3.org/1999/xlink" 
	 viewBox="0 0 512 512" xml:space="preserve">
<g>
	<g>
		<g>
			<path d="M256,51.2c-61.167,0-110.933,49.766-110.933,110.933S194.833,273.067,256,273.067S366.933,223.3,366.933,162.133
				S317.167,51.2,256,51.2z"/>
			<path d="M418.133,162.133C418.133,72.73,345.404,0,256,0S93.867,72.73,93.867,162.133c0,80.128,58.172,147.635,136.533,160.051
				v44.749h-59.733c-4.71,0-8.533,3.814-8.533,8.533V409.6c0,4.719,3.823,8.533,8.533,8.533H230.4v85.333
				c0,4.719,3.823,8.533,8.533,8.533h34.133c4.71,0,8.533-3.814,8.533-8.533v-85.333h59.733c4.71,0,8.533-3.814,8.533-8.533v-34.133
				c0-4.719-3.823-8.533-8.533-8.533H281.6v-44.749C359.962,309.769,418.133,242.261,418.133,162.133z M256,290.133
				c-70.579,0-128-57.421-128-128s57.421-128,128-128s128,57.421,128,128S326.579,290.133,256,290.133z"/>
		</g>
	</g>
</g>
</svg>